<?xml version="1.0"?>
<svg xmlns="http://www.w3.org/2000/svg" xmlns:xlink="http://www.w3.org/1999/xlink" version="1.1" viewBox="0 0 192 192" width="200px" height="200px"><g fill="none" fill-rule="nonzero" stroke="none" stroke-width="1" stroke-linecap="butt" stroke-linejoin="miter" stroke-miterlimit="10" stroke-dasharray="" stroke-dashoffset="0" font-family="none" font-weight="none" font-size="none" text-anchor="none" style="mix-blend-mode: normal"><path d="M0,192v-192h192v192z" fill="none"/><g id="Layer_1"><path d="M93.006,108c39.651,0 78.471,4.254 89.427,5.559l0.588,0.075c0.894,0.114 1.764,0.222 2.55,0.333c0.081,0.009 0.369,0.03 0.489,0.033c0.87,0 1.761,-0.441 2.322,-1.185c0.657,-0.864 0.804,-2.019 0.378,-3.015v-0.006c-3.255,-7.704 -9.099,-22.863 -9.159,-23.016l-0.447,-1.158l9.21,-21.372c0.417,-0.954 0.327,-2.025 -0.228,-2.886c-0.558,-0.849 -1.494,-1.362 -2.511,-1.362h-179.55c-1.695,0 -3.075,1.344 -3.075,3v48c0,0.885 0.393,1.713 1.074,2.277c0.564,0.468 1.269,0.723 2.001,0.723c0.087,-0.006 0.225,-0.024 0.489,-0.057l2.43,-0.357c9.627,-1.308 44.139,-5.586 84.012,-5.586z" fill="#5cbb9d"/><path d="M191.523,108.63c-3.273,-7.752 -9.123,-22.929 -9.123,-22.929c1.581,-3.579 9.096,-20.271 9.096,-20.271c0.336,-0.765 0.501,-1.575 0.504,-2.385c0.006,-1.158 -0.321,-2.307 -0.972,-3.315c-1.113,-1.707 -2.991,-2.73 -5.028,-2.73h-179.925c-3.351,0 -6.075,2.691 -6.075,6v48c0,1.782 0.792,3.456 2.166,4.59c1.089,0.909 2.481,1.41 3.909,1.41c0.273,0 0.276,0 3.324,-0.411l-0.003,-0.03c9.876,-1.341 44.04,-5.559 83.61,-5.559c39.327,0 77.529,4.164 89.07,5.538c1.077,0.135 2.136,0.27 3.072,0.399c0.144,0.024 0.723,0.063 0.852,0.063c1.86,0 3.645,-0.885 4.773,-2.37c1.302,-1.716 1.59,-4.02 0.75,-6zM186,63l-10.101,22.53c0,0 6.78,17.58 10.092,25.446c-0.54,-0.069 -7.284,-0.897 -8.595,-1.086c-0.918,-2.538 -5.649,-13.596 -5.649,-13.596c0,0 -4.644,10.077 -5.631,12.486l-7.809,-0.945c1.173,-2.562 9.72,-22.311 9.72,-22.311c0,0 -7.842,-19.713 -8.97,-22.524l8.229,0.003c0.849,2.016 5.076,12.585 5.076,12.585c0,0 4.587,-10.482 5.406,-12.588zM120,105.588v-42.588l7.887,0.009c-0.009,0.012 -0.012,0.027 -0.012,0.051l0.135,35.142l9.99,0.405c0,0.006 0,0.012 0,0.018v7.917c-5.724,-0.366 -11.775,-0.696 -18,-0.954zM144,63h7.875v44.544c-2.532,-0.204 -5.16,-0.402 -7.875,-0.597zM39,63l21,0.018v0.042v0v7.452h-13.68v10.911l10.68,0.015v7.386h-10.68v10.065c0,0 13.743,-1.236 13.68,-1.239v8.253c-7.575,0.402 -14.634,0.906 -21,1.44zM66,70.539c0,0 0,-7.533 0,-7.539h21v7.599h-7.101v34.548c-2.298,0.051 -4.557,0.117 -6.798,0.192v-34.74zM13.815,63l11.364,27.156l0.075,-27.156h7.746v44.877c-3.234,0.3 -6.24,0.6 -8.982,0.891l-10.143,-24.42v25.584c-4.212,0.522 -6.945,0.912 -7.875,1.047v-47.979zM93,105v-42h21l-0.006,7.815h-13.488v11.175l10.122,0.111l-0.006,7.899h-10.116v15h-7.5c0,0 -0.003,0 -0.006,0z" fill="#8d6c9f"/><path d="M168.156,136.044c-0.099,0 -0.198,-0.006 -0.303,-0.015c-1.65,-0.165 -2.85,-1.635 -2.688,-3.285l0.597,-5.97c0.165,-1.65 1.629,-2.835 3.285,-2.688c1.65,0.165 2.85,1.635 2.688,3.285l-0.597,5.97c-0.156,1.548 -1.458,2.703 -2.982,2.703z" fill="#8d6c9f"/><path d="M153.747,134.727c-0.081,0 -0.168,-0.003 -0.249,-0.009c-1.653,-0.138 -2.88,-1.587 -2.745,-3.24l0.495,-5.976c0.138,-1.653 1.563,-2.871 3.24,-2.745c1.65,0.138 2.877,1.587 2.742,3.24l-0.495,5.979c-0.132,1.566 -1.443,2.751 -2.988,2.751z" fill="#8d6c9f"/><path d="M139.317,133.644c-0.066,0 -0.135,-0.003 -0.201,-0.006c-1.653,-0.111 -2.904,-1.539 -2.796,-3.192l0.396,-5.985c0.108,-1.653 1.542,-2.877 3.192,-2.796c1.653,0.111 2.904,1.539 2.796,3.192l-0.396,5.985c-0.105,1.587 -1.422,2.802 -2.991,2.802z" fill="#8d6c9f"/><path d="M124.875,132.819c-0.051,0 -0.099,0 -0.147,-0.003c-1.656,-0.081 -2.934,-1.488 -2.853,-3.141l0.291,-5.994c0.081,-1.659 1.608,-2.934 3.141,-2.853c1.656,0.081 2.934,1.488 2.853,3.141l-0.291,5.994c-0.078,1.608 -1.404,2.856 -2.994,2.856z" fill="#8d6c9f"/><path d="M110.43,132.264c-0.03,0 -0.06,0 -0.087,0c-1.656,-0.048 -2.961,-1.431 -2.916,-3.084l0.171,-5.997c0.048,-1.656 1.479,-2.835 3.084,-2.916c1.656,0.048 2.961,1.431 2.916,3.084l-0.171,5.997c-0.048,1.626 -1.38,2.916 -2.997,2.916z" fill="#8d6c9f"/><path d="M81.534,132.123c-1.632,0 -2.967,-1.305 -3,-2.94l-0.117,-6c-0.033,-1.656 1.287,-3.027 2.94,-3.06c0.021,0 0.042,0 0.06,0c1.632,0 2.967,1.305 3,2.94l0.117,6c0.033,1.656 -1.287,3.027 -2.94,3.06c-0.024,0 -0.042,0 -0.06,0z" fill="#8d6c9f"/><path d="M67.089,132.573c-1.596,0 -2.925,-1.26 -2.994,-2.871l-0.261,-5.994c-0.072,-1.656 1.209,-3.054 2.865,-3.126c1.746,-0.09 3.06,1.212 3.129,2.868l0.261,5.994c0.072,1.656 -1.209,3.054 -2.868,3.126c-0.042,0.003 -0.087,0.003 -0.132,0.003z" fill="#8d6c9f"/><path d="M52.656,133.359c-1.566,0 -2.889,-1.218 -2.991,-2.808l-0.387,-5.988c-0.105,-1.653 1.149,-3.078 2.802,-3.189c1.644,-0.054 3.078,1.149 3.189,2.802l0.387,5.988c0.105,1.653 -1.149,3.078 -2.802,3.189c-0.066,0.003 -0.135,0.006 -0.198,0.006z" fill="#8d6c9f"/><path d="M38.241,134.439c-1.542,0 -2.85,-1.179 -2.985,-2.742l-0.516,-5.976c-0.144,-1.65 1.08,-3.105 2.73,-3.246c1.68,-0.18 3.102,1.077 3.246,2.73l0.516,5.976c0.144,1.65 -1.08,3.105 -2.73,3.246c-0.087,0.012 -0.177,0.012 -0.261,0.012z" fill="#8d6c9f"/><path d="M23.853,135.837c-1.512,0 -2.814,-1.14 -2.979,-2.679l-0.645,-5.964c-0.18,-1.647 1.014,-3.126 2.661,-3.306c1.653,-0.18 3.126,1.014 3.306,2.661l0.645,5.964c0.18,1.647 -1.014,3.126 -2.661,3.306c-0.111,0.012 -0.222,0.018 -0.327,0.018z" fill="#8d6c9f"/><path d="M96,132c-1.659,0 -3,-1.341 -3,-3v-6c0,-1.659 1.341,-3 3,-3c1.659,0 3,1.341 3,3v6c0,1.659 -1.341,3 -3,3z" fill="#8d6c9f"/></g></g></svg>
